<?xml version="1.0" standalone="no"?>
<!DOCTYPE svg PUBLIC "-//W3C//DTD SVG 20010904//EN"
 "http://www.w3.org/TR/2001/REC-SVG-20010904/DTD/svg10.dtd">
<svg version="1.0" xmlns="http://www.w3.org/2000/svg"
 width="256.000000pt" height="256.000000pt" viewBox="0 0 256.000000 256.000000"
 preserveAspectRatio="xMidYMid meet">

<g transform="translate(0.000000,256.000000) scale(0.100000,-0.100000)"
fill="#000000" stroke="none">
<path d="M1240 2240 l0 -280 120 0 120 0 0 -137 0 -138 -39 -21 -38 -21 -23
34 c-88 128 -244 221 -402 239 l-58 7 0 138 0 139 -160 0 -160 0 0 120 0 120
-280 0 -280 0 0 -280 0 -280 280 0 280 0 0 120 0 120 120 0 120 0 0 -103 0
-102 -52 -13 c-194 -45 -365 -216 -410 -408 l-12 -52 -49 -6 c-105 -14 -200
-84 -247 -181 -19 -41 -24 -66 -24 -135 -1 -78 2 -90 33 -148 38 -70 70 -101
145 -139 42 -22 69 -27 154 -31 l102 -5 0 -53 0 -52 51 -17 c28 -10 53 -24 56
-34 3 -9 20 -50 38 -92 l32 -76 -25 -48 -24 -48 105 -104 104 -105 48 24 48
25 76 -32 c42 -18 83 -35 92 -38 10 -3 24 -28 34 -56 l17 -51 148 0 148 0 17
51 c10 28 24 53 34 56 9 3 50 20 92 38 l76 32 48 -25 48 -24 104 105 105 104
-24 48 -25 48 32 76 c18 42 35 83 38 92 3 10 28 24 56 34 l51 17 0 52 0 53 72
6 c145 12 267 99 331 235 29 61 32 76 32 162 0 86 -3 101 -32 162 -37 80 -96
146 -158 179 l-45 24 0 97 0 98 120 0 120 0 0 280 0 280 -280 0 -280 0 0 -280
0 -280 120 0 120 0 0 -83 0 -83 -58 4 c-35 2 -84 -2 -121 -12 l-64 -16 -44 41
c-24 22 -74 55 -111 72 -59 28 -78 31 -154 32 l-88 0 0 123 0 122 120 0 120 0
0 280 0 280 -280 0 -280 0 0 -280z m480 0 l0 -200 -200 0 -200 0 0 200 0 200
200 0 200 0 0 -200z m-1200 -80 l0 -200 -200 0 -200 0 0 200 0 200 200 0 200
0 0 -200z m1920 -120 l0 -200 -200 0 -200 0 0 200 0 200 200 0 200 0 0 -200z
m-1405 -215 c130 -34 252 -131 310 -246 15 -29 29 -56 31 -58 2 -2 22 13 45
32 73 63 123 82 219 81 69 0 93 -4 130 -23 66 -35 104 -67 134 -111 l26 -39
57 27 c48 22 72 27 138 27 71 -1 87 -4 143 -34 70 -38 100 -70 140 -145 22
-43 26 -64 26 -136 0 -72 -4 -93 -26 -136 -39 -75 -70 -107 -140 -145 l-63
-34 -935 -3 c-719 -2 -945 0 -980 10 -59 16 -141 96 -158 154 -28 94 -8 169
63 240 58 58 117 80 193 71 l48 -6 11 74 c40 281 318 470 588 400z m-310
-1052 c30 -140 52 -193 112 -271 74 -95 161 -156 283 -198 76 -26 243 -26 320
0 92 31 170 77 229 137 91 91 134 177 166 332 5 27 6 27 86 27 l80 0 -3 -27
c-2 -21 -11 -29 -45 -40 -40 -14 -43 -18 -63 -81 -12 -37 -35 -91 -51 -120
l-29 -52 21 -42 21 -41 -65 -64 -64 -65 -41 21 -42 21 -52 -29 c-29 -16 -83
-39 -120 -51 -63 -20 -67 -23 -81 -63 l-14 -42 -93 0 -93 0 -14 42 c-14 40
-18 43 -81 63 -37 12 -91 35 -120 51 l-52 29 -42 -21 -41 -21 -64 65 -65 64
21 41 21 42 -29 52 c-16 29 -39 83 -51 120 -20 63 -23 67 -63 81 -34 11 -43
19 -45 40 l-3 27 80 0 c80 0 81 0 86 -27z m159 11 c3 -9 6 -24 6 -33 0 -10 16
-50 35 -88 43 -86 103 -144 193 -186 61 -29 76 -32 162 -32 86 0 101 3 162 32
90 42 150 100 193 186 19 38 35 78 35 88 0 38 11 49 51 49 38 0 38 0 33 -32
-34 -193 -172 -344 -359 -393 -267 -69 -540 113 -589 393 -5 32 -5 32 33 32
26 0 41 -5 45 -16z m707 -16 c-20 -88 -86 -169 -174 -215 -45 -24 -64 -28
-137 -28 -78 0 -90 3 -148 34 -83 45 -143 122 -163 209 l-7 32 318 0 318 0 -7
-32z"/>
<path d="M1400 2240 l0 -120 120 0 120 0 0 120 0 120 -120 0 -120 0 0 -120z
m160 0 l0 -40 -40 0 -40 0 0 40 0 40 40 0 40 0 0 -40z"/>
<path d="M200 2160 l0 -120 120 0 120 0 0 120 0 120 -120 0 -120 0 0 -120z
m160 0 l0 -40 -40 0 -40 0 0 40 0 40 40 0 40 0 0 -40z"/>
<path d="M2120 2040 l0 -120 120 0 120 0 0 120 0 120 -120 0 -120 0 0 -120z
m160 0 l0 -40 -40 0 -40 0 0 40 0 40 40 0 40 0 0 -40z"/>
<path d="M826 1749 c-62 -15 -153 -68 -197 -116 -50 -55 -96 -151 -105 -220
l-7 -53 41 0 40 0 7 47 c20 138 130 248 268 268 47 7 47 7 47 46 0 36 -2 39
-27 38 -16 -1 -45 -5 -67 -10z"/>
<path d="M855 1426 c-37 -17 -70 -52 -84 -89 -6 -16 -11 -103 -11 -203 l0
-174 40 0 40 0 0 80 0 80 80 0 80 0 0 -80 0 -80 41 0 40 0 -3 189 c-3 207 -6
216 -70 264 -34 25 -113 32 -153 13z m120 -91 c21 -20 25 -34 25 -80 l0 -55
-80 0 -80 0 0 55 c0 67 29 105 80 105 19 0 40 -9 55 -25z"/>
<path d="M1160 1201 l0 -241 40 0 40 0 0 79 0 79 70 4 c74 4 105 19 144 72 29
39 29 133 0 172 -44 60 -67 69 -185 72 l-109 4 0 -241z m215 134 c16 -15 25
-36 25 -55 0 -51 -38 -80 -105 -80 l-55 0 0 80 0 80 55 0 c46 0 60 -4 80 -25z"/>
<path d="M1560 1400 l0 -40 40 0 40 0 0 -160 0 -160 -40 0 -40 0 0 -40 0 -40
120 0 120 0 0 40 0 40 -40 0 -40 0 0 160 0 160 40 0 40 0 0 40 0 40 -120 0
-120 0 0 -40z"/>
<path d="M2120 1401 c0 -36 2 -39 35 -45 51 -10 103 -60 117 -112 12 -42 14
-44 50 -44 29 0 38 4 38 16 0 76 -80 182 -157 208 -73 25 -83 22 -83 -23z"/>
<path d="M200 600 l0 -40 160 0 160 0 0 40 0 40 -160 0 -160 0 0 -40z"/>
<path d="M2080 600 l0 -40 160 0 160 0 0 40 0 40 -160 0 -160 0 0 -40z"/>
<path d="M200 440 l0 -40 160 0 160 0 0 40 0 40 -160 0 -160 0 0 -40z"/>
<path d="M2080 440 l0 -40 160 0 160 0 0 40 0 40 -160 0 -160 0 0 -40z"/>
<path d="M200 280 l0 -40 160 0 160 0 0 40 0 40 -160 0 -160 0 0 -40z"/>
<path d="M2080 280 l0 -40 160 0 160 0 0 40 0 40 -160 0 -160 0 0 -40z"/>
</g>
</svg>
