<?xml version="1.0" standalone="no"?>
<!DOCTYPE svg PUBLIC "-//W3C//DTD SVG 20010904//EN"
 "http://www.w3.org/TR/2001/REC-SVG-20010904/DTD/svg10.dtd">
<svg version="1.0" xmlns="http://www.w3.org/2000/svg"
 width="512.000000pt" height="512.000000pt" viewBox="0 0 512.000000 512.000000"
 preserveAspectRatio="xMidYMid meet">

<g transform="translate(0.000000,512.000000) scale(0.100000,-0.100000)"
fill="#000000" stroke="none">
<path d="M320 4947 c-49 -16 -133 -102 -148 -153 -17 -60 -17 -3448 0 -3508
16 -55 99 -138 154 -154 31 -9 235 -12 806 -12 l766 0 -100 -400 -100 -400
-169 0 -169 0 0 -80 0 -80 1200 0 1200 0 0 80 0 80 -169 0 -169 0 -100 400
-100 400 767 0 c873 0 829 -4 904 80 24 26 49 66 55 88 17 57 17 3447 0 3504
-6 22 -31 62 -55 88 -79 88 145 80 -2337 79 -1574 -1 -2211 -4 -2236 -12z
m4456 -169 c12 -11 19 -39 22 -78 l4 -60 -2001 0 -2001 0 0 -80 0 -80 2000 0
2000 0 0 -1360 0 -1360 -2240 0 -2240 0 0 1484 c0 951 4 1494 10 1511 5 14 20
30 32 35 14 5 909 8 2210 7 2054 -2 2188 -3 2204 -19z m24 -3303 c0 -134 -8
-166 -47 -184 -34 -16 -4352 -16 -4386 0 -39 18 -47 50 -47 184 l0 125 2240 0
2240 0 0 -125z m-1642 -755 l100 -400 -698 0 -698 0 100 400 100 400 498 0
498 0 100 -400z"/>
<path d="M480 4560 l0 -80 80 0 80 0 0 80 0 80 -80 0 -80 0 0 -80z"/>
<path d="M1200 3120 l0 -1200 80 0 80 0 0 1200 0 1200 -80 0 -80 0 0 -1200z"/>
<path d="M1652 4167 c-116 -118 -132 -138 -132 -167 0 -29 16 -49 132 -167
l132 -133 58 57 58 57 -92 93 -93 93 93 93 92 93 -58 57 -58 57 -132 -133z"/>
<path d="M2478 4243 l-58 -58 92 -92 93 -93 -93 -93 -92 -93 58 -57 58 -57
132 133 c174 176 174 158 0 334 l-133 133 -57 -57z"/>
<path d="M480 4160 l0 -80 200 0 200 0 0 80 0 80 -200 0 -200 0 0 -80z"/>
<path d="M2087 3998 c-42 -106 -77 -198 -77 -203 0 -9 139 -69 145 -63 7 7
155 383 155 393 0 8 -37 26 -131 60 -12 4 -31 -35 -92 -187z"/>
<path d="M2960 4000 l0 -80 840 0 840 0 0 80 0 80 -840 0 -840 0 0 -80z"/>
<path d="M480 3760 l0 -80 200 0 200 0 0 80 0 80 -200 0 -200 0 0 -80z"/>
<path d="M2880 3680 l0 -80 680 0 680 0 0 80 0 80 -680 0 -680 0 0 -80z"/>
<path d="M480 3360 l0 -80 200 0 200 0 0 80 0 80 -200 0 -200 0 0 -80z"/>
<path d="M1520 3360 l0 -80 1000 0 1000 0 0 80 0 80 -1000 0 -1000 0 0 -80z"/>
<path d="M1680 3040 l0 -80 1360 0 1360 0 0 80 0 80 -1360 0 -1360 0 0 -80z"/>
<path d="M640 2960 l0 -80 200 0 200 0 0 80 0 80 -200 0 -200 0 0 -80z"/>
<path d="M1520 2720 l0 -80 560 0 560 0 0 80 0 80 -560 0 -560 0 0 -80z"/>
<path d="M640 2560 l0 -80 200 0 200 0 0 80 0 80 -200 0 -200 0 0 -80z"/>
<path d="M3012 2407 c-116 -118 -132 -138 -132 -167 0 -29 16 -49 132 -167
l132 -133 58 57 58 57 -92 93 -93 93 93 93 92 93 -58 57 -58 57 -132 -133z"/>
<path d="M3838 2483 l-58 -58 92 -92 93 -93 -93 -93 -92 -93 58 -57 58 -57
132 133 c174 176 174 158 0 334 l-133 133 -57 -57z"/>
<path d="M1840 2400 l0 -80 440 0 440 0 0 80 0 80 -440 0 -440 0 0 -80z"/>
<path d="M3447 2238 c-42 -106 -77 -198 -77 -203 0 -9 139 -69 145 -63 7 7
155 383 155 393 0 8 -37 26 -131 60 -12 4 -31 -35 -92 -187z"/>
<path d="M640 2160 l0 -80 200 0 200 0 0 80 0 80 -200 0 -200 0 0 -80z"/>
<path d="M1680 2080 l0 -80 440 0 440 0 0 80 0 80 -440 0 -440 0 0 -80z"/>
</g>
</svg>
