<?xml version="1.0" standalone="no"?>
<!DOCTYPE svg PUBLIC "-//W3C//DTD SVG 20010904//EN"
 "http://www.w3.org/TR/2001/REC-SVG-20010904/DTD/svg10.dtd">
<svg version="1.0" xmlns="http://www.w3.org/2000/svg"
 width="128.000000pt" height="128.000000pt" viewBox="0 0 128.000000 128.000000"
 preserveAspectRatio="xMidYMid meet">

<g transform="translate(0.000000,128.000000) scale(0.100000,-0.100000)"
fill="#000000" stroke="none">
<path d="M519 1257 c-104 -29 -192 -106 -235 -203 -20 -46 -28 -54 -51 -54
-48 0 -129 -55 -160 -107 -51 -86 -33 -214 39 -279 55 -51 154 -78 177 -50 18
22 -2 46 -38 46 -41 0 -103 42 -128 85 -65 115 21 255 158 255 23 0 29 8 47
58 27 73 75 130 143 167 48 27 63 30 139 30 73 0 92 -4 137 -27 28 -15 71 -50
95 -78 l43 -50 65 0 c104 -1 179 -48 217 -137 33 -81 4 -198 -63 -249 -39 -30
-43 -49 -13 -65 18 -9 27 -5 69 39 53 55 80 122 80 197 0 145 -132 275 -278
275 -40 0 -51 5 -99 51 -29 27 -78 61 -108 75 -66 30 -170 40 -236 21z"/>
<path d="M372 880 c-12 -5 -27 -21 -32 -35 -14 -37 -13 -537 1 -568 18 -39 50
-47 184 -47 l125 0 0 -34 c0 -28 -4 -35 -22 -38 -13 -2 -27 -13 -33 -25 -10
-23 -12 -23 -216 -23 -171 0 -209 -3 -219 -15 -10 -12 -10 -18 0 -30 10 -12
48 -15 219 -15 204 0 206 0 216 -22 9 -21 17 -23 85 -23 68 0 76 2 85 22 10
23 12 23 211 23 167 0 204 3 214 15 10 12 10 18 0 30 -10 12 -47 15 -214 15
-199 0 -201 0 -211 22 -6 13 -20 24 -32 26 -19 3 -23 10 -23 38 l0 34 125 0
c134 0 166 8 184 47 7 15 11 115 11 284 0 280 -5 310 -52 323 -36 9 -580 6
-606 -4z m78 -120 l0 -70 -30 0 c-30 0 -30 0 -30 58 0 60 11 82 42 82 16 0 18
-9 18 -70z m320 10 c0 -13 -7 -20 -20 -20 -13 0 -20 7 -20 20 0 13 7 20 20 20
13 0 20 -7 20 -20z m120 0 c0 -13 -7 -20 -20 -20 -13 0 -20 7 -20 20 0 13 7
20 20 20 13 0 20 -7 20 -20z m-440 -210 l0 -70 -30 0 -30 0 0 70 0 70 30 0 30
0 0 -70z m320 10 c0 -13 -7 -20 -20 -20 -13 0 -20 7 -20 20 0 13 7 20 20 20
13 0 20 -7 20 -20z m120 0 c0 -13 -7 -20 -20 -20 -13 0 -20 7 -20 20 0 13 7
20 20 20 13 0 20 -7 20 -20z m-440 -210 c0 -61 -2 -70 -18 -70 -31 0 -42 22
-42 82 0 58 0 58 30 58 l30 0 0 -70z m320 10 c0 -13 -7 -20 -20 -20 -13 0 -20
7 -20 20 0 13 7 20 20 20 13 0 20 -7 20 -20z m120 0 c0 -13 -7 -20 -20 -20
-13 0 -20 7 -20 20 0 13 7 20 20 20 13 0 20 -7 20 -20z m-180 -290 c0 -16 -7
-20 -30 -20 -23 0 -30 4 -30 20 0 16 7 20 30 20 23 0 30 -4 30 -20z"/>
</g>
</svg>
