<?xml version="1.0" standalone="no"?>
<!DOCTYPE svg PUBLIC "-//W3C//DTD SVG 20010904//EN"
 "http://www.w3.org/TR/2001/REC-SVG-20010904/DTD/svg10.dtd">
<svg version="1.0" xmlns="http://www.w3.org/2000/svg"
 width="256.000000pt" height="256.000000pt" viewBox="0 0 256.000000 256.000000"
 preserveAspectRatio="xMidYMid meet">

<g transform="translate(0.000000,256.000000) scale(0.100000,-0.100000)"
fill="#000000" stroke="none">
<path d="M442 2548 c-8 -8 -12 -45 -12 -100 l0 -88 -123 0 c-83 0 -129 -4
-140 -13 -16 -11 -18 -63 -18 -747 0 -684 2 -736 18 -747 11 -9 57 -13 141
-13 l123 0 -2 -181 -2 -180 55 -57 c30 -31 128 -136 218 -232 91 -96 169 -178
175 -182 5 -4 348 -8 761 -8 570 0 753 3 762 12 9 9 12 306 12 1274 0 1141 -2
1262 -16 1268 -9 3 -54 6 -100 6 l-84 0 0 -40 0 -40 65 0 65 0 0 -1200 0
-1200 -699 0 -700 0 -3 220 c-2 183 -6 222 -18 230 -8 5 -106 10 -217 10
l-203 0 0 150 0 150 35 0 c34 0 35 1 35 40 l0 40 -170 0 -170 0 0 200 0 200
305 0 305 0 0 -235 c0 -256 1 -261 56 -237 l24 12 0 230 0 230 83 0 c51 0 88
5 95 12 9 9 12 76 12 240 l0 228 114 0 c63 0 121 3 130 6 14 5 16 39 16 270 0
250 -1 264 -19 274 -13 6 -168 10 -435 10 l-416 0 0 60 0 60 720 0 720 0 0 40
0 40 -743 0 c-565 0 -746 -3 -755 -12z m848 -468 l0 -200 -530 0 -530 0 0 200
0 200 530 0 530 0 0 -200z m-260 -480 l0 -200 -402 2 -403 3 -3 185 c-1 101 0
190 2 197 4 10 89 13 406 13 l400 0 0 -200z m-170 -1295 c0 -85 -2 -155 -5
-155 -4 0 -70 68 -234 243 l-64 67 151 0 152 0 0 -155z"/>
<path d="M537 2213 c-4 -3 -7 -24 -7 -45 0 -34 3 -38 25 -38 24 0 24 -1 27
-97 l3 -98 40 0 40 0 3 98 c3 96 3 97 27 97 23 0 25 4 25 45 l0 45 -88 0 c-49
0 -92 -3 -95 -7z"/>
<path d="M792 2208 c-8 -8 -12 -55 -12 -145 l0 -133 40 0 40 0 0 53 c0 49 2
52 25 52 24 0 25 -3 25 -53 l0 -53 43 3 42 3 3 116 c1 64 -2 128 -7 143 -14
37 -49 34 -82 -5 l-26 -32 -19 31 c-19 33 -50 42 -72 20z"/>
<path d="M262 2073 l3 -138 40 0 40 0 3 48 c3 38 7 47 22 47 15 0 19 -9 22
-47 l3 -48 40 0 40 0 3 138 3 137 -46 0 -45 0 0 -50 c0 -43 -3 -50 -20 -50
-17 0 -20 7 -20 50 l0 50 -45 0 -46 0 3 -137z"/>
<path d="M1060 2091 c0 -150 0 -151 116 -151 l84 0 0 40 0 40 -55 0 -55 0 0
95 0 95 -45 0 -45 0 0 -119z"/>
<path d="M371 1722 c-19 -10 -43 -34 -53 -53 -53 -98 16 -209 129 -209 l43 0
0 40 c0 40 0 40 -38 40 -45 0 -72 23 -72 62 0 34 30 58 73 58 36 0 37 1 37 40
l0 40 -43 0 c-23 0 -58 -8 -76 -18z"/>
<path d="M579 1711 c-20 -20 -29 -39 -29 -61 0 -37 47 -90 79 -90 12 0 21 -4
21 -10 0 -5 -22 -10 -50 -10 l-50 0 0 -40 0 -40 64 0 c55 0 67 3 90 26 37 37
35 86 -3 125 -16 16 -39 29 -50 29 -12 0 -21 5 -21 10 0 6 23 10 50 10 l50 0
0 40 0 40 -61 0 c-54 0 -64 -3 -90 -29z"/>
<path d="M799 1711 c-20 -20 -29 -39 -29 -61 0 -37 47 -90 79 -90 12 0 21 -4
21 -10 0 -5 -22 -10 -50 -10 l-50 0 0 -40 0 -40 64 0 c59 0 66 2 90 31 35 41
34 83 -3 120 -16 16 -39 29 -50 29 -42 0 -19 19 27 22 47 3 47 3 50 41 l3 37
-61 0 c-55 0 -65 -3 -91 -29z"/>
<path d="M2030 2520 l0 -40 45 0 45 0 0 40 0 40 -45 0 -45 0 0 -40z"/>
<path d="M1246 1453 c-31 -37 -56 -73 -56 -81 0 -13 109 -152 119 -152 4 0 19
10 34 23 l28 22 -46 53 -45 54 45 52 45 53 -23 21 c-13 12 -28 22 -34 22 -5 0
-35 -30 -67 -67z"/>
<path d="M1450 1370 l0 -40 55 0 55 0 0 40 0 40 -55 0 -55 0 0 -40z"/>
<path d="M1650 1370 l0 -40 285 0 285 0 0 40 0 40 -285 0 -285 0 0 -40z"/>
<path d="M420 1225 c0 -33 4 -45 15 -45 19 0 21 -90 3 -108 -18 -18 -45 -14
-61 9 -12 16 -23 20 -55 17 l-40 -3 12 -35 c28 -85 140 -106 203 -36 32 35 33
37 33 131 0 106 -6 115 -74 115 -36 0 -36 0 -36 -45z"/>
<path d="M650 1259 c-83 -33 -76 -155 10 -174 47 -10 35 -25 -20 -25 l-50 0 0
-40 0 -40 59 0 c49 0 65 4 90 26 25 21 31 33 31 65 0 45 -34 89 -69 89 -43 0
-29 19 16 22 l48 3 0 40 0 40 -45 2 c-25 1 -56 -2 -70 -8z"/>
<path d="M1450 1190 l0 -40 280 0 280 0 0 40 0 40 -280 0 -280 0 0 -40z"/>
<path d="M1450 985 l0 -35 55 0 55 0 0 35 0 35 -55 0 -55 0 0 -35z"/>
<path d="M1650 985 l0 -35 180 0 180 0 0 35 0 35 -180 0 -180 0 0 -35z"/>
<path d="M662 883 c3 -37 4 -38 46 -41 l42 -3 0 40 0 41 -46 0 -45 0 3 -37z"/>
<path d="M1450 790 l0 -40 280 0 280 0 0 40 0 40 -280 0 -280 0 0 -40z"/>
<path d="M1450 600 l0 -40 55 0 55 0 0 40 0 40 -55 0 -55 0 0 -40z"/>
<path d="M1660 600 l0 -40 175 0 175 0 0 40 0 40 -175 0 -175 0 0 -40z"/>
<path d="M2108 543 l-27 -26 44 -51 44 -51 -45 -53 -44 -54 31 -25 c16 -14 31
-24 33 -22 1 2 28 35 59 72 31 38 57 74 57 81 0 10 -115 156 -123 156 -1 0
-14 -12 -29 -27z"/>
<path d="M1210 415 l0 -35 400 0 400 0 0 35 0 35 -400 0 -400 0 0 -35z"/>
</g>
</svg>
